<?xml version="1.0" standalone="no"?>
<!DOCTYPE svg PUBLIC "-//W3C//DTD SVG 20010904//EN"
 "http://www.w3.org/TR/2001/REC-SVG-20010904/DTD/svg10.dtd">
<svg version="1.0" xmlns="http://www.w3.org/2000/svg"
 width="1419.000000pt" height="1419.000000pt" viewBox="0 0 1419.000000 1419.000000"
 preserveAspectRatio="xMidYMid meet">
<metadata>
Created by potrace 1.11, written by Peter Selinger 2001-2013
</metadata>
<g transform="translate(0.000000,1419.000000) scale(0.100000,-0.100000)"
fill="#000000" stroke="none">
<path d="M6695 14179 c-1033 -58 -2047 -340 -2945 -819 -1034 -552 -1898
-1328 -2552 -2295 -659 -973 -1066 -2100 -1183 -3274 -21 -219 -21 -1173 0
-1392 147 -1482 753 -2873 1739 -3994 145 -164 300 -325 431 -447 72 -66 154
-142 183 -169 254 -236 769 -613 1077 -788 47 -27 47 -27 -160 134 -88 68
-218 174 -290 235 -71 62 -188 155 -258 208 l-129 96 29 24 c62 52 177 122
200 122 l25 0 -22 -36 c-11 -20 -19 -42 -16 -49 2 -7 -4 -25 -15 -41 -19 -30
-25 -54 -11 -54 4 0 20 21 36 48 37 60 74 100 107 118 38 19 62 76 109 254 98
371 250 867 345 1130 35 96 74 211 86 255 23 85 41 115 70 115 26 0 59 -39 59
-69 0 -14 14 -55 31 -91 35 -74 158 -264 166 -256 3 3 -26 56 -64 118 -85 137
-103 171 -103 198 0 53 52 -5 199 -225 136 -202 178 -255 200 -255 21 0 130
-71 226 -148 39 -31 131 -116 206 -189 88 -85 144 -133 157 -133 12 0 38 -15
59 -33 l38 -32 -48 65 c-83 115 -157 227 -157 239 0 28 33 4 122 -87 52 -53
126 -140 165 -192 68 -92 113 -142 113 -125 0 19 53 -43 96 -112 25 -41 48
-72 51 -69 11 10 -54 110 -193 296 -164 218 -244 336 -244 356 0 25 36 15 144
-41 126 -64 246 -140 246 -155 0 -12 -9 -8 -52 24 -15 11 -30 17 -34 14 -3 -3
9 -34 26 -67 17 -34 28 -66 25 -71 -4 -6 2 -22 13 -38 29 -42 35 -64 15 -60
-24 5 -83 96 -83 129 0 45 -120 165 -143 143 -2 -3 -14 8 -26 23 -34 46 -43
55 -48 49 -8 -8 16 -41 97 -136 84 -97 213 -268 338 -448 93 -134 138 -186
153 -176 15 9 2 41 -57 138 -51 84 -66 126 -45 126 12 0 45 -46 144 -200 47
-74 98 -148 112 -165 l26 -30 -17 35 c-9 19 -58 100 -109 180 -176 278 -265
443 -265 491 0 12 -8 28 -17 35 -16 12 -15 13 15 14 39 0 47 -15 34 -64 -12
-42 -5 -44 34 -14 26 21 27 21 19 3 -19 -43 -6 -75 95 -236 128 -205 269 -419
276 -419 8 0 -27 62 -126 220 -159 255 -227 376 -216 387 2 2 18 -3 35 -12 17
-8 31 -13 31 -10 0 3 -18 28 -40 56 -31 39 -40 59 -40 89 0 41 -2 43 -72 54
-104 18 -538 241 -538 277 0 6 10 5 23 -1 22 -11 22 -11 -2 9 -13 12 -31 21
-40 21 -33 0 -81 39 -81 65 0 15 -6 25 -15 25 -35 0 -307 179 -555 366 -440
331 -855 735 -1158 1124 -356 458 -608 948 -750 1455 -201 715 -167 1482 98
2250 296 854 873 1645 1637 2242 121 94 465 326 588 395 44 25 190 103 325
173 302 157 480 256 545 302 66 48 115 69 372 158 483 168 783 237 1243 287
278 30 803 33 1010 5 432 -58 863 -193 1272 -398 271 -136 426 -247 708 -507
332 -305 501 -486 774 -831 251 -316 336 -437 393 -558 38 -80 36 -92 -14 -93
-14 0 -27 -10 -35 -27 -7 -15 -39 -41 -73 -60 -33 -19 -49 -31 -35 -27 37 11
254 42 262 37 10 -5 159 -264 207 -360 44 -87 61 -143 43 -143 -6 0 -44 28
-84 63 -121 105 -225 167 -313 187 -54 12 -85 0 -85 -33 0 -39 -14 -50 -35
-27 -20 22 -57 25 -120 10 -22 -5 -82 -10 -133 -11 -116 0 -164 -15 -260 -78
-100 -65 -144 -83 -186 -75 -35 6 -81 -11 -105 -40 -19 -23 -41 -20 -42 7 0
17 -5 12 -20 -21 -30 -64 -60 -193 -53 -225 8 -38 32 -46 54 -17 l17 23 7 -44
c13 -83 64 -120 83 -62 l9 27 28 -37 c16 -20 37 -37 47 -37 18 0 23 16 31 90
3 24 7 25 78 31 90 7 135 24 350 130 198 97 257 119 325 119 72 0 123 -35 230
-161 119 -140 194 -218 227 -235 40 -21 75 -18 89 8 12 21 7 124 -6 161 -4 9
-3 17 3 17 24 0 177 -472 256 -785 191 -766 228 -1639 100 -2385 -101 -589
-281 -1076 -547 -1475 -221 -331 -588 -711 -954 -987 -786 -594 -1794 -897
-2817 -848 -409 19 -685 62 -1138 176 -120 29 -228 54 -240 53 -22 -1 -22 -1
2 -8 34 -9 40 -41 7 -41 -37 0 -80 38 -74 67 4 19 1 22 -15 17 -10 -3 -30 2
-44 11 -25 16 -27 16 -50 -6 l-24 -23 -35 34 -35 34 0 -27 c0 -25 -3 -27 -39
-27 -44 0 -100 17 -120 36 -13 12 -12 16 3 33 18 20 18 21 -8 31 -45 17 -103
23 -151 16 l-45 -7 0 -50 c0 -28 7 -63 15 -80 11 -20 14 -41 9 -65 -6 -34 -5
-36 14 -25 31 17 37 13 17 -9 -14 -15 -16 -29 -11 -62 9 -52 41 -128 55 -128
15 0 13 40 -4 70 -19 33 -19 75 0 104 14 21 13 27 -15 81 -32 61 -39 125 -16
144 10 9 21 3 49 -28 61 -67 109 -181 77 -181 -6 0 -26 34 -46 75 -34 72 -54
99 -54 74 0 -24 72 -158 105 -196 27 -31 36 -36 46 -25 21 20 26 14 33 -37 7
-51 60 -143 109 -190 50 -46 47 -14 -7 66 -53 80 -146 262 -161 313 l-7 25 27
-25 c33 -31 132 -177 186 -276 60 -109 81 -95 34 21 -36 86 -40 120 -21 150
24 37 46 31 102 -30 28 -30 56 -55 63 -55 15 0 13 30 -4 60 -26 45 -16 49 42
14 38 -23 69 -34 95 -34 21 0 38 -4 38 -10 0 -17 -81 -69 -134 -86 -72 -22
-102 -10 -117 51 -6 25 -15 45 -21 45 -21 0 -17 -32 12 -90 21 -42 29 -68 24
-83 -4 -12 -37 -70 -75 -128 -87 -136 -151 -266 -227 -459 -89 -226 -97 -261
-96 -420 1 -102 6 -153 22 -211 20 -75 91 -243 99 -235 2 2 -1 42 -7 90 -7 47
-10 91 -8 97 2 6 26 -44 53 -111 28 -72 61 -134 77 -150 19 -19 34 -53 48
-106 12 -43 24 -81 27 -84 19 -17 -70 364 -101 430 l-16 35 5 -75 5 -75 -25
68 c-13 37 -27 88 -31 112 -6 41 -4 45 14 45 43 0 149 -161 283 -430 48 -96
107 -225 130 -287 48 -121 50 -123 136 -123 33 0 35 1 28 27 -16 66 -113 297
-190 451 -46 92 -126 232 -178 312 -147 224 -217 375 -217 465 0 39 3 45 20
45 94 0 696 -438 1150 -837 138 -122 400 -368 471 -444 25 -27 52 -49 60 -49
8 0 91 7 184 15 632 55 1244 188 1805 390 161 58 447 173 504 202 l37 19 -78
54 c-322 222 -569 416 -713 560 -190 190 -174 229 97 238 188 6 207 2 239 -51
42 -68 281 -297 354 -340 116 -67 181 -82 370 -82 91 0 220 6 288 14 114 13
123 13 142 -4 19 -17 22 -16 97 30 108 67 398 264 487 331 65 48 75 60 81 94
4 21 13 44 21 51 11 9 15 6 20 -21 7 -31 7 -31 25 -13 13 13 21 46 29 123 18
170 30 219 63 257 24 27 28 39 21 51 -16 25 -56 32 -234 42 -237 14 -293 32
-342 111 -42 67 -86 349 -60 384 4 6 24 19 45 29 43 22 117 98 117 120 0 11
-8 13 -35 9 l-35 -6 6 62 c6 51 4 61 -8 61 -10 0 -25 -22 -38 -55 -17 -41 -33
-63 -63 -83 -28 -19 -52 -48 -78 -98 -20 -39 -58 -99 -83 -134 -98 -133 -437
-873 -411 -898 8 -8 108 92 163 162 25 32 57 89 72 125 39 94 96 205 114 220
13 11 18 7 34 -26 11 -21 38 -96 62 -168 68 -207 81 -239 91 -224 5 8 9 80 9
161 0 125 -3 158 -21 209 -30 87 -24 88 80 15 22 -15 87 -47 143 -70 132 -54
139 -64 117 -174 -21 -100 -69 -214 -117 -277 -42 -55 -75 -66 -80 -27 -2 13
-9 21 -15 19 -11 -3 -22 -27 -57 -124 -15 -39 -58 -61 -195 -96 -482 -125
-705 -98 -910 107 -85 86 -165 196 -165 227 0 28 25 13 118 -73 90 -83 197
-139 277 -146 32 -3 55 0 59 7 5 7 -7 11 -36 11 -90 1 -195 61 -327 187 -74
71 -81 81 -81 116 0 34 -3 38 -22 36 -82 -11 -67 71 94 546 l102 300 56 55
c30 30 147 117 260 192 408 272 693 526 997 888 127 152 168 186 208 176 71
-18 373 -355 646 -721 108 -145 429 -621 429 -636 0 -23 24 -1 102 94 856
1038 1396 2269 1573 3581 47 356 59 545 59 951 0 406 -12 595 -59 951 -287
2129 -1532 4020 -3376 5127 -924 554 -1928 884 -3009 987 -305 29 -725 37
-1035 19z m2816 -2866 c13 -16 12 -17 -3 -4 -17 13 -22 21 -14 21 2 0 10 -8
17 -17z m70 -50 c13 -16 12 -17 -3 -4 -17 13 -22 21 -14 21 2 0 10 -8 17 -17z
m70 -50 c13 -16 12 -17 -3 -4 -17 13 -22 21 -14 21 2 0 10 -8 17 -17z m50 -40
c13 -16 12 -17 -3 -4 -17 13 -22 21 -14 21 2 0 10 -8 17 -17z m44 -33 c10 -11
16 -20 13 -20 -3 0 -13 9 -23 20 -10 11 -16 20 -13 20 3 0 13 -9 23 -20z
m-5445 -24 c0 -2 -24 -19 -52 -37 -29 -19 -78 -54 -108 -78 -30 -24 -44 -32
-30 -17 20 22 177 136 187 136 2 0 3 -2 3 -4z m5495 -16 c10 -11 16 -20 13
-20 -3 0 -13 9 -23 20 -10 11 -16 20 -13 20 3 0 13 -9 23 -20z m65 -55 c13
-14 21 -25 18 -25 -2 0 -15 11 -28 25 -13 14 -21 25 -18 25 2 0 15 -11 28 -25z
m85 -75 c21 -22 37 -40 34 -40 -3 0 -23 18 -44 40 -21 22 -37 40 -34 40 3 0
23 -18 44 -40z m190 -180 c66 -66 117 -120 115 -120 -3 0 -59 54 -125 120 -66
66 -117 120 -115 120 3 0 59 -54 125 -120z m206 -217 c13 -16 12 -17 -3 -4
-10 7 -18 15 -18 17 0 8 8 3 21 -13z m-6526 -7215 c37 -25 75 -77 75 -101 0
-37 -50 -3 -91 61 -43 67 -38 78 16 40z m198 -139 c45 -30 89 -80 185 -209 29
-40 55 -65 67 -66 11 -1 25 -2 31 -3 6 0 47 -33 90 -71 62 -56 80 -67 87 -55
4 8 15 15 22 15 11 0 15 -13 15 -47 0 -56 22 -108 80 -193 23 -34 40 -63 38
-65 -2 -2 -28 16 -58 40 -50 39 -72 64 -164 192 -17 24 -45 47 -62 53 -17 6
-42 22 -55 37 -37 39 -99 82 -113 77 -27 -10 -95 89 -96 141 0 47 -21 95 -40
95 -23 0 -25 -15 -5 -50 31 -53 8 -112 -31 -79 -24 20 -54 85 -54 119 0 23 -4
30 -20 30 -24 0 -24 3 -5 40 19 38 30 37 88 -1z m216 -154 c30 -35 43 -91 19
-83 -13 5 -78 95 -78 109 0 20 30 7 59 -26z m164 -91 c86 -43 207 -122 207
-135 0 -12 2 -12 -96 12 -65 17 -98 31 -135 61 -55 43 -91 98 -64 98 9 0 48
-16 88 -36z m223 -211 c48 -50 118 -142 112 -148 -7 -7 -168 162 -168 175 0
19 19 10 56 -27z m515 -378 c65 -130 64 -214 -3 -143 -60 64 -113 214 -94 265
7 16 10 15 32 -12 13 -16 42 -66 65 -110z m4581 63 c-32 -47 -79 -162 -140
-339 -70 -203 -109 -259 -169 -244 -34 8 -168 145 -223 227 -47 70 -52 113
-17 146 27 25 80 49 302 136 94 36 188 77 210 90 60 36 70 32 37 -16z m-3906
-93 c4 -8 15 -15 26 -15 18 0 20 -5 15 -36 l-6 -36 34 26 c42 32 50 33 29 1
-20 -30 -47 -40 -74 -25 -34 18 -67 100 -40 100 6 0 13 -7 16 -15z m3159 -189
c21 -9 48 -34 67 -62 131 -190 217 -288 285 -323 12 -6 52 -15 89 -20 203 -29
67 -161 -166 -161 -254 0 -513 151 -674 393 -31 46 -56 87 -56 90 0 5 302 81
360 90 48 8 61 7 95 -7z m-6411 -215 c11 -17 -6 -41 -33 -47 -37 -9 -51 -23
-51 -50 0 -13 -4 -24 -10 -24 -14 0 -12 52 3 70 16 20 68 60 78 60 4 0 10 -4
13 -9z m4197 -1118 c13 -16 12 -17 -3 -4 -10 7 -18 15 -18 17 0 8 8 3 21 -13z"/>
<path d="M7633 10219 c-28 -5 -94 -22 -145 -38 -51 -17 -162 -48 -247 -71
-165 -43 -198 -56 -215 -82 -18 -29 1 -31 46 -4 101 59 378 112 543 103 50 -2
97 -7 106 -11 13 -6 16 -2 12 18 -7 37 12 34 114 -21 177 -94 219 -113 253
-118 33 -5 34 -5 10 6 -14 7 -63 31 -110 53 -56 27 -101 57 -131 88 -48 50
-118 88 -159 87 -14 -1 -48 -5 -77 -10z"/>
<path d="M7560 9804 c-19 -2 -91 -9 -160 -15 -167 -14 -274 -33 -399 -70 -109
-33 -111 -33 -311 -13 -61 6 -68 5 -98 -21 -17 -14 -47 -31 -65 -36 -18 -5
-58 -31 -89 -59 -31 -27 -61 -50 -67 -50 -16 0 -208 -132 -284 -195 -52 -43
-67 -62 -65 -78 6 -45 101 -12 198 68 84 70 198 123 236 108 13 -5 13 -8 -1
-29 -22 -34 -19 -36 23 -15 20 10 48 22 61 26 21 6 23 5 18 -15 -4 -17 -2 -21
11 -16 147 49 398 125 433 131 24 5 67 -1 120 -14 46 -11 217 -39 379 -61 296
-41 394 -60 440 -86 14 -7 44 -18 66 -24 24 -6 79 -38 128 -74 82 -61 133 -85
156 -71 6 3 10 -4 10 -18 0 -24 37 -65 77 -86 12 -6 42 -11 66 -11 40 0 49 -5
94 -51 l51 -51 12 52 c15 62 6 201 -20 330 -20 96 -39 145 -40 100 0 -14 9
-79 20 -145 36 -216 23 -229 -40 -41 -21 65 -55 145 -74 179 -43 76 -95 137
-102 120 -9 -21 -21 -15 -78 36 -75 68 -87 73 -199 87 -106 13 -127 23 -127
62 0 24 -1 25 -60 19 -53 -6 -63 -4 -77 13 -15 18 -29 20 -113 18 -52 0 -111
-3 -130 -4z"/>
<path d="M6022 9461 c-64 -54 -226 -241 -216 -250 8 -8 159 151 190 200 13 21
42 49 64 61 38 22 51 38 31 38 -6 0 -37 -22 -69 -49z"/>
<path d="M8660 9320 c0 -36 29 -222 40 -255 7 -23 9 -10 4 50 -7 111 -44 281
-44 205z"/>
<path d="M7662 8885 c2 -3 40 -10 83 -16 172 -24 342 -121 442 -253 62 -82 84
-135 94 -225 10 -88 29 -120 29 -48 0 114 -69 248 -189 367 -96 95 -171 141
-272 165 -59 14 -199 21 -187 10z"/>
<path d="M9836 8868 c-3 -13 -10 -77 -16 -143 -6 -66 -13 -141 -17 -167 -3
-31 -2 -48 5 -48 18 0 31 61 41 200 6 74 13 145 17 158 5 16 2 22 -10 22 -8 0
-18 -10 -20 -22z"/>
<path d="M10682 8376 c-34 -19 -80 -50 -101 -69 -21 -19 -64 -52 -97 -74 -81
-56 -187 -169 -333 -358 -68 -88 -147 -187 -176 -220 -60 -69 -70 -85 -56 -85
13 0 133 144 266 320 133 176 226 272 322 333 39 25 82 59 94 76 14 19 36 33
63 40 42 10 123 70 96 70 -8 0 -43 -15 -78 -33z"/>
<path d="M7954 8194 c4 -10 29 -94 57 -186 52 -179 90 -282 141 -381 44 -88
47 -54 3 43 -20 44 -40 107 -46 139 -17 105 -120 378 -149 396 -10 6 -12 3 -6
-11z"/>
<path d="M5470 7890 c-120 -14 -215 -54 -215 -90 0 -23 30 -23 105 0 60 19 73
20 96 8 39 -19 61 -54 80 -128 9 -36 27 -87 41 -115 111 -224 523 -519 898
-644 173 -58 250 -66 615 -66 334 0 416 8 455 45 11 11 36 23 55 26 47 9 93
33 167 87 108 80 204 178 228 232 20 44 92 125 111 125 4 0 4 -20 1 -45 -4
-24 -2 -47 3 -50 19 -12 34 42 35 122 0 91 -13 118 -74 160 -153 104 -803 225
-1601 297 -487 44 -824 56 -1000 36z m985 -110 c533 -49 828 -86 965 -120 41
-10 87 -21 101 -24 19 -4 28 -14 32 -35 5 -25 12 -31 44 -36 115 -18 154 -28
209 -55 72 -35 154 -117 154 -153 0 -75 -282 -348 -388 -377 -23 -6 -57 -19
-75 -30 -60 -35 -149 -44 -417 -44 -296 1 -400 14 -560 69 -386 135 -790 426
-893 644 -25 53 -29 69 -21 99 28 109 205 122 849 62z"/>
<path d="M6955 7565 c-54 -19 -81 -53 -95 -121 -16 -74 -8 -132 19 -151 12 -8
30 -31 41 -52 34 -68 104 -77 182 -26 120 80 98 304 -35 354 -37 14 -63 13
-112 -4z"/>
<path d="M11389 7363 c5 -15 22 -55 39 -88 16 -33 38 -89 48 -125 20 -77 42
-123 53 -115 18 11 21 56 5 97 -9 24 -27 72 -40 108 -19 52 -27 65 -43 63 -15
-2 -22 8 -33 39 -15 48 -42 68 -29 21z"/>
<path d="M9988 7174 c-111 -34 -126 -140 -35 -241 20 -21 68 -91 108 -154 82
-132 117 -176 214 -278 138 -145 296 -251 430 -290 146 -42 308 -50 321 -16 8
20 59 35 118 35 160 0 338 104 402 237 51 104 27 235 -55 304 -86 71 -381 193
-681 282 -401 119 -690 162 -822 121z m279 -49 c515 -111 1055 -302 1181 -418
58 -53 71 -141 32 -216 -59 -118 -229 -211 -381 -211 -30 0 -46 -6 -63 -25
-20 -22 -32 -25 -88 -25 -126 0 -295 59 -429 151 -204 138 -411 417 -438 589
-12 73 -14 141 -5 164 9 23 52 20 191 -9z"/>
<path d="M10705 6881 c-44 -27 -62 -51 -75 -100 -21 -81 11 -201 61 -226 62
-33 136 -13 172 44 48 78 17 237 -55 281 -41 25 -65 25 -103 1z"/>
<path d="M9971 6747 c-3 -39 361 -476 423 -509 11 -6 -12 23 -51 65 -40 42
-127 146 -194 229 -168 212 -178 224 -178 215z"/>
<path d="M6752 5209 c-111 -55 -238 -227 -230 -310 3 -31 6 -34 45 -41 58 -10
102 -34 248 -138 327 -235 599 -384 935 -513 273 -104 504 -168 1010 -279 73
-16 671 4 965 33 271 26 152 37 -425 38 -621 1 -698 10 -1075 121 -466 136
-868 316 -1190 532 -116 78 -166 122 -227 197 -68 85 -97 141 -98 187 0 35
-22 59 -45 50 -9 -3 -15 0 -15 9 0 21 107 102 165 125 39 15 44 19 24 19 -14
1 -53 -13 -87 -30z"/>
<path d="M5253 2595 c3 -11 11 -39 17 -62 6 -23 14 -43 18 -45 4 -2 20 -30 35
-62 56 -117 286 -465 340 -513 22 -20 87 -47 94 -39 12 12 -83 173 -121 205
-24 20 -20 4 19 -65 38 -67 48 -117 19 -94 -8 8 -34 45 -56 84 -23 39 -65 107
-95 150 -56 83 -69 113 -60 146 4 16 2 18 -13 10 -28 -15 -30 -13 -30 28 0 45
-11 65 -33 56 -14 -5 -15 0 -10 31 6 36 5 37 -16 26 -18 -10 -21 -9 -21 9 0
27 -20 65 -60 115 -19 24 -30 32 -27 20z"/>
<path d="M5395 2510 c-8 -12 34 -87 63 -113 20 -18 20 -18 7 20 -8 21 -14 47
-15 59 0 35 -40 59 -55 34z"/>
<path d="M5610 2265 c0 -21 89 -191 138 -261 89 -132 109 -117 36 28 -31 61
-44 100 -42 119 3 18 0 25 -8 22 -22 -8 -51 15 -78 62 -27 45 -46 58 -46 30z"/>
<path d="M11507 1633 c-3 -10 -8 -35 -12 -56 -6 -35 -5 -38 13 -28 34 18 43
36 33 64 -13 33 -28 42 -34 20z"/>
<path d="M4565 1205 c21 -53 273 -515 342 -629 107 -176 193 -266 255 -266 15
0 28 3 28 8 0 14 -38 68 -116 167 -240 301 -347 450 -425 592 -83 153 -113
198 -84 128z"/>
</g>
</svg>
